<mxfile host="app.diagrams.net" modified="2021-08-05T07:23:46.731Z" agent="5.0 (Macintosh; Intel Mac OS X 10_15_7) AppleWebKit/537.36 (KHTML, like Gecko) Chrome/92.0.4515.107 Safari/537.36" etag="GbqDc8pu8xRdvNsR8aBq" version="14.9.4" type="github">
  <diagram id="xbAAYKfblGsPh9zUPp-F" name="Page-1">
    <mxGraphModel dx="788" dy="428" grid="1" gridSize="10" guides="1" tooltips="1" connect="1" arrows="1" fold="1" page="1" pageScale="1" pageWidth="850" pageHeight="1100" math="0" shadow="0">
      <root>
        <mxCell id="0" />
        <mxCell id="1" parent="0" />
        <mxCell id="lu-meyHoTcEKd3aWmLg1-1" value="" style="shape=flexArrow;endArrow=classic;startArrow=classic;html=1;width=28;fillColor=#dae8fc;strokeColor=#6c8ebf;" edge="1" parent="1">
          <mxGeometry width="100" height="100" relative="1" as="geometry">
            <mxPoint x="60" y="350" as="sourcePoint" />
            <mxPoint x="770" y="350" as="targetPoint" />
          </mxGeometry>
        </mxCell>
        <mxCell id="lu-meyHoTcEKd3aWmLg1-3" value="MQTT BUS" style="text;html=1;strokeColor=none;fillColor=none;align=center;verticalAlign=middle;whiteSpace=wrap;rounded=0;fontFamily=Tahoma;fontStyle=0;fontSize=14;" vertex="1" parent="1">
          <mxGeometry x="368" y="340" width="90" height="20" as="geometry" />
        </mxCell>
        <mxCell id="lu-meyHoTcEKd3aWmLg1-5" value="" style="rounded=1;whiteSpace=wrap;html=1;fontFamily=Tahoma;fontSize=14;" vertex="1" parent="1">
          <mxGeometry x="90" y="200" width="120" height="60" as="geometry" />
        </mxCell>
        <mxCell id="lu-meyHoTcEKd3aWmLg1-6" value="" style="rounded=1;whiteSpace=wrap;html=1;fontFamily=Tahoma;fontSize=14;" vertex="1" parent="1">
          <mxGeometry x="220" y="200" width="120" height="60" as="geometry" />
        </mxCell>
        <mxCell id="lu-meyHoTcEKd3aWmLg1-7" value="Cloud Service" style="rounded=1;whiteSpace=wrap;html=1;fontFamily=Tahoma;fontSize=14;" vertex="1" parent="1">
          <mxGeometry x="290" y="90" width="250" height="60" as="geometry" />
        </mxCell>
        <mxCell id="lu-meyHoTcEKd3aWmLg1-8" value="" style="rounded=1;whiteSpace=wrap;html=1;fontFamily=Tahoma;fontSize=14;" vertex="1" parent="1">
          <mxGeometry x="480" y="200" width="120" height="60" as="geometry" />
        </mxCell>
        <mxCell id="lu-meyHoTcEKd3aWmLg1-9" value="" style="rounded=1;whiteSpace=wrap;html=1;fontFamily=Tahoma;fontSize=14;" vertex="1" parent="1">
          <mxGeometry x="90" y="440" width="120" height="60" as="geometry" />
        </mxCell>
        <mxCell id="lu-meyHoTcEKd3aWmLg1-10" value="" style="rounded=1;whiteSpace=wrap;html=1;fontFamily=Tahoma;fontSize=14;" vertex="1" parent="1">
          <mxGeometry x="220" y="440" width="120" height="60" as="geometry" />
        </mxCell>
        <mxCell id="lu-meyHoTcEKd3aWmLg1-11" value="" style="rounded=1;whiteSpace=wrap;html=1;fontFamily=Tahoma;fontSize=14;" vertex="1" parent="1">
          <mxGeometry x="610" y="200" width="120" height="60" as="geometry" />
        </mxCell>
        <mxCell id="lu-meyHoTcEKd3aWmLg1-12" value="" style="rounded=1;whiteSpace=wrap;html=1;fontFamily=Tahoma;fontSize=14;" vertex="1" parent="1">
          <mxGeometry x="350" y="440" width="120" height="60" as="geometry" />
        </mxCell>
        <mxCell id="lu-meyHoTcEKd3aWmLg1-13" value="" style="rounded=1;whiteSpace=wrap;html=1;fontFamily=Tahoma;fontSize=14;" vertex="1" parent="1">
          <mxGeometry x="480" y="440" width="120" height="60" as="geometry" />
        </mxCell>
        <mxCell id="lu-meyHoTcEKd3aWmLg1-14" value="" style="rounded=1;whiteSpace=wrap;html=1;fontFamily=Tahoma;fontSize=14;" vertex="1" parent="1">
          <mxGeometry x="610" y="440" width="120" height="60" as="geometry" />
        </mxCell>
        <mxCell id="lu-meyHoTcEKd3aWmLg1-19" value="" style="shape=flexArrow;endArrow=classic;startArrow=classic;html=1;fontFamily=Tahoma;fontSize=14;fillColor=#f5f5f5;strokeColor=#666666;" edge="1" parent="1">
          <mxGeometry width="100" height="100" relative="1" as="geometry">
            <mxPoint x="415" y="326" as="sourcePoint" />
            <mxPoint x="415" y="160" as="targetPoint" />
          </mxGeometry>
        </mxCell>
        <mxCell id="lu-meyHoTcEKd3aWmLg1-20" value="" style="shape=flexArrow;endArrow=classic;startArrow=classic;html=1;fontFamily=Tahoma;fontSize=14;fillColor=#f5f5f5;strokeColor=#666666;" edge="1" parent="1">
          <mxGeometry width="100" height="100" relative="1" as="geometry">
            <mxPoint x="414.71" y="430" as="sourcePoint" />
            <mxPoint x="414.57999999999987" y="370" as="targetPoint" />
          </mxGeometry>
        </mxCell>
        <mxCell id="lu-meyHoTcEKd3aWmLg1-21" value="" style="shape=flexArrow;endArrow=classic;startArrow=classic;html=1;fontFamily=Tahoma;fontSize=14;fillColor=#f5f5f5;strokeColor=#666666;" edge="1" parent="1">
          <mxGeometry width="100" height="100" relative="1" as="geometry">
            <mxPoint x="670.13" y="330" as="sourcePoint" />
            <mxPoint x="669.9999999999999" y="270" as="targetPoint" />
          </mxGeometry>
        </mxCell>
        <mxCell id="lu-meyHoTcEKd3aWmLg1-22" value="" style="shape=flexArrow;endArrow=classic;startArrow=classic;html=1;fontFamily=Tahoma;fontSize=14;fillColor=#f5f5f5;strokeColor=#666666;" edge="1" parent="1">
          <mxGeometry width="100" height="100" relative="1" as="geometry">
            <mxPoint x="149.70999999999998" y="330" as="sourcePoint" />
            <mxPoint x="149.57999999999987" y="270" as="targetPoint" />
          </mxGeometry>
        </mxCell>
        <mxCell id="lu-meyHoTcEKd3aWmLg1-23" value="" style="shape=flexArrow;endArrow=classic;startArrow=classic;html=1;fontFamily=Tahoma;fontSize=14;fillColor=#f5f5f5;strokeColor=#666666;" edge="1" parent="1">
          <mxGeometry width="100" height="100" relative="1" as="geometry">
            <mxPoint x="150.13" y="430" as="sourcePoint" />
            <mxPoint x="149.9999999999999" y="370" as="targetPoint" />
          </mxGeometry>
        </mxCell>
        <mxCell id="lu-meyHoTcEKd3aWmLg1-24" value="" style="shape=flexArrow;endArrow=classic;startArrow=classic;html=1;fontFamily=Tahoma;fontSize=14;fillColor=#f5f5f5;strokeColor=#666666;" edge="1" parent="1">
          <mxGeometry width="100" height="100" relative="1" as="geometry">
            <mxPoint x="669.71" y="431" as="sourcePoint" />
            <mxPoint x="669.5799999999999" y="371" as="targetPoint" />
          </mxGeometry>
        </mxCell>
        <mxCell id="lu-meyHoTcEKd3aWmLg1-25" value="" style="shape=flexArrow;endArrow=classic;startArrow=classic;html=1;fontFamily=Tahoma;fontSize=14;fillColor=#f5f5f5;strokeColor=#666666;" edge="1" parent="1">
          <mxGeometry width="100" height="100" relative="1" as="geometry">
            <mxPoint x="539.71" y="430.0000000000001" as="sourcePoint" />
            <mxPoint x="539.5799999999999" y="370" as="targetPoint" />
          </mxGeometry>
        </mxCell>
        <mxCell id="lu-meyHoTcEKd3aWmLg1-26" value="" style="shape=flexArrow;endArrow=classic;startArrow=classic;html=1;fontFamily=Tahoma;fontSize=14;fillColor=#f5f5f5;strokeColor=#666666;" edge="1" parent="1">
          <mxGeometry width="100" height="100" relative="1" as="geometry">
            <mxPoint x="279.71000000000004" y="430.0000000000001" as="sourcePoint" />
            <mxPoint x="279.5799999999999" y="370" as="targetPoint" />
          </mxGeometry>
        </mxCell>
        <mxCell id="lu-meyHoTcEKd3aWmLg1-27" value="" style="shape=flexArrow;endArrow=classic;startArrow=classic;html=1;fontFamily=Tahoma;fontSize=14;fillColor=#f5f5f5;strokeColor=#666666;" edge="1" parent="1">
          <mxGeometry width="100" height="100" relative="1" as="geometry">
            <mxPoint x="279.71000000000004" y="330" as="sourcePoint" />
            <mxPoint x="279.5799999999998" y="270" as="targetPoint" />
          </mxGeometry>
        </mxCell>
        <mxCell id="lu-meyHoTcEKd3aWmLg1-28" value="" style="shape=flexArrow;endArrow=classic;startArrow=classic;html=1;fontFamily=Tahoma;fontSize=14;fillColor=#f5f5f5;strokeColor=#666666;" edge="1" parent="1">
          <mxGeometry width="100" height="100" relative="1" as="geometry">
            <mxPoint x="540.1300000000001" y="330" as="sourcePoint" />
            <mxPoint x="540" y="270" as="targetPoint" />
          </mxGeometry>
        </mxCell>
      </root>
    </mxGraphModel>
  </diagram>
</mxfile>
